<svg width="203" height="129" viewBox="0 0 203 129" fill="none" xmlns="http://www.w3.org/2000/svg">
<path d="M28.0115 78.2823V47.46H41.9033C43.3503 47.46 44.6816 47.7639 45.8972 48.3716C47.1416 48.9505 48.2124 49.7463 49.1096 50.7593C50.0068 51.7433 50.7014 52.8575 51.1934 54.102C51.7143 55.3465 51.9748 56.6054 51.9748 57.8788C51.9748 59.1522 51.7722 60.3678 51.367 61.5254C50.9619 62.6541 50.383 63.6815 49.6306 64.6076C48.8781 65.5048 47.9809 66.2428 46.939 66.8216L53.7113 78.2823H45.8537L39.9497 68.3411H35.131V78.2823H28.0115ZM35.131 62.1332H41.6428C42.2216 62.1332 42.7281 61.9595 43.1622 61.6122C43.6253 61.236 44.0015 60.7295 44.2909 60.0928C44.5803 59.4561 44.725 58.7181 44.725 57.8788C44.725 57.0395 44.5514 56.316 44.2041 55.7082C43.8857 55.0715 43.4806 54.5795 42.9886 54.2322C42.4966 53.8849 41.9756 53.7113 41.4257 53.7113H35.131V62.1332ZM66.6629 78.7165C64.7238 78.7165 63.0018 78.4126 61.4969 77.8048C59.992 77.1681 58.7041 76.3143 57.6333 75.2435C56.5914 74.1727 55.7955 72.9427 55.2456 71.5535C54.6957 70.1354 54.4208 68.6594 54.4208 67.1255C54.4208 64.926 54.8983 62.9291 55.8534 61.1347C56.8374 59.3114 58.241 57.8499 60.0643 56.7501C61.8876 55.6214 64.0871 55.0571 66.6629 55.0571C69.2387 55.0571 71.4237 55.6069 73.2181 56.7067C75.0414 57.8065 76.4305 59.2535 77.3856 61.0479C78.3407 62.8133 78.8182 64.7379 78.8182 66.8216C78.8182 67.2268 78.7893 67.632 78.7314 68.0372C78.7024 68.4134 78.6735 68.7462 78.6445 69.0356H61.8008C61.8876 70.0486 62.1625 70.9023 62.6256 71.5969C63.1176 72.2915 63.7398 72.8269 64.4923 73.2032C65.2448 73.5505 66.0407 73.7241 66.88 73.7241C67.9218 73.7241 68.8914 73.4781 69.7885 72.9861C70.7147 72.4941 71.3514 71.8285 71.6987 70.9892L77.6027 72.6388C77.0238 73.8254 76.199 74.8818 75.1282 75.8079C74.0863 76.7051 72.8418 77.4141 71.3948 77.9351C69.9767 78.456 68.3994 78.7165 66.6629 78.7165ZM61.6271 64.7813H71.525C71.4093 63.8262 71.1343 63.0014 70.7002 62.3068C70.2661 61.5833 69.6873 61.0334 68.9637 60.6572C68.2402 60.252 67.4443 60.0494 66.5761 60.0494C65.6789 60.0494 64.8685 60.252 64.145 60.6572C63.4504 61.0334 62.8861 61.5833 62.452 62.3068C62.0178 63.0014 61.7429 63.8262 61.6271 64.7813ZM83.3574 78.2823V62.6107H80.4488V57.3579H83.3574V55.4912C83.3574 53.5811 83.6758 51.9314 84.3125 50.5422C84.9781 49.1531 85.9043 48.0822 87.0908 47.3298C88.3064 46.5483 89.71 46.1576 91.3018 46.1576C92.2858 46.1576 93.2698 46.2734 94.2538 46.5049C95.2378 46.7365 96.2363 47.0693 97.2492 47.5034L95.9903 52.7128C95.5561 52.5102 95.0497 52.3511 94.4708 52.2353C93.892 52.0906 93.3566 52.0182 92.8646 52.0182C92.0253 52.0182 91.3886 52.2932 90.9545 52.8431C90.5204 53.364 90.3033 54.1599 90.3033 55.2307V57.3579H95.5996V62.6107H90.3033V78.2823H83.3574ZM98.3677 70.0775V55.4912H105.314V68.5581C105.314 69.9473 105.589 71.0181 106.138 71.7706C106.688 72.4941 107.47 72.8559 108.483 72.8559C109.119 72.8559 109.727 72.7546 110.306 72.552C110.885 72.3205 111.449 71.9587 111.999 71.4667C112.549 70.9747 113.041 70.338 113.475 69.5566V55.4912H120.421V70.5551C120.421 71.2496 120.522 71.7416 120.725 72.0311C120.956 72.2915 121.347 72.4507 121.897 72.5086V78.2823C121.26 78.3981 120.696 78.4849 120.204 78.5428C119.741 78.6007 119.321 78.6296 118.945 78.6296C117.729 78.6296 116.76 78.3836 116.036 77.8916C115.313 77.3707 114.864 76.6472 114.691 75.7211L114.56 74.3319C113.518 75.8368 112.216 76.9511 110.653 77.6746C109.119 78.3692 107.397 78.7165 105.487 78.7165C103.172 78.7165 101.407 77.9785 100.191 76.5025C98.9755 75.0265 98.3677 72.8848 98.3677 70.0775ZM111.652 53.4508L107.224 52.2353L109.481 46.5918H115.776L111.652 53.4508ZM166.331 78.2823V55.4912H173.277V78.2823H166.331ZM166.331 52.8865V46.5918H173.277V52.8865H166.331ZM188.885 78.7165C186.946 78.7165 185.209 78.3981 183.675 77.7614C182.17 77.1247 180.897 76.2565 179.855 75.1567C178.813 74.0569 178.017 72.798 177.467 71.3799C176.946 69.9618 176.686 68.4713 176.686 66.9085C176.686 65.3167 176.946 63.8118 177.467 62.3936C178.017 60.9755 178.813 59.7166 179.855 58.6168C180.897 57.5171 182.17 56.6488 183.675 56.0121C185.209 55.3754 186.946 55.0571 188.885 55.0571C190.824 55.0571 192.546 55.3754 194.051 56.0121C195.556 56.6488 196.829 57.5171 197.871 58.6168C198.913 59.7166 199.709 60.9755 200.259 62.3936C200.808 63.8118 201.083 65.3167 201.083 66.9085C201.083 68.4713 200.808 69.9618 200.259 71.3799C199.709 72.798 198.913 74.0569 197.871 75.1567C196.829 76.2565 195.556 77.1247 194.051 77.7614C192.546 78.3981 190.824 78.7165 188.885 78.7165ZM183.805 66.9085C183.805 68.0951 184.023 69.1369 184.457 70.0341C184.92 70.9313 185.527 71.6259 186.28 72.1179C187.032 72.6099 187.901 72.8559 188.885 72.8559C189.84 72.8559 190.693 72.6099 191.446 72.1179C192.227 71.5969 192.835 70.8879 193.269 69.9907C193.703 69.0935 193.92 68.0661 193.92 66.9085C193.92 65.7219 193.703 64.68 193.269 63.7828C192.835 62.8856 192.227 62.1911 191.446 61.6991C190.693 61.2071 189.84 60.9611 188.885 60.9611C187.901 60.9611 187.032 61.2071 186.28 61.6991C185.527 62.1911 184.92 62.8856 184.457 63.7828C184.023 64.68 183.805 65.7219 183.805 66.9085Z" fill="#161616"/>
<path d="M3.32442 118.8V87.9777H10.4439V112.549H25.3776V118.8H3.32442ZM38.9658 119.234C37.0268 119.234 35.3048 118.93 33.7998 118.323C32.2949 117.686 31.007 116.832 29.9362 115.761C28.8943 114.69 28.0984 113.46 27.5485 112.071C26.9986 110.653 26.7237 109.177 26.7237 107.643C26.7237 105.444 27.2012 103.447 28.1563 101.652C29.1403 99.8291 30.5439 98.3676 32.3672 97.2678C34.1905 96.1391 36.39 95.5748 38.9658 95.5748C41.5416 95.5748 43.7266 96.1246 45.521 97.2244C47.3443 98.3242 48.7335 99.7712 49.6885 101.566C50.6436 103.331 51.1211 105.256 51.1211 107.339C51.1211 107.745 51.0922 108.15 51.0343 108.555C51.0053 108.931 50.9764 109.264 50.9475 109.553H34.1037C34.1905 110.566 34.4655 111.42 34.9285 112.115C35.4205 112.809 36.0428 113.345 36.7952 113.721C37.5477 114.068 38.3436 114.242 39.1829 114.242C40.2248 114.242 41.1943 113.996 42.0915 113.504C43.0176 113.012 43.6543 112.346 44.0016 111.507L49.9056 113.157C49.3268 114.343 48.5019 115.399 47.4311 116.326C46.3892 117.223 45.1448 117.932 43.6977 118.453C42.2796 118.974 40.7023 119.234 38.9658 119.234ZM33.93 105.299H43.8279C43.7122 104.344 43.4372 103.519 43.0031 102.825C42.569 102.101 41.9902 101.551 41.2666 101.175C40.5431 100.77 39.7472 100.567 38.879 100.567C37.9818 100.567 37.1715 100.77 36.4479 101.175C35.7533 101.551 35.189 102.101 34.7549 102.825C34.3208 103.519 34.0458 104.344 33.93 105.299ZM63.1251 118.887C61.6202 118.887 60.2455 118.597 59.001 118.019C57.7565 117.411 56.6857 116.586 55.7885 115.544C54.9203 114.473 54.2402 113.243 53.7482 111.854C53.2562 110.465 53.0102 108.975 53.0102 107.383C53.0102 105.704 53.2707 104.156 53.7916 102.738C54.3125 101.32 55.0361 100.075 55.9622 99.0043C56.9173 97.9045 58.0315 97.0652 59.3049 96.4864C60.6073 95.8786 62.0398 95.5748 63.6027 95.5748C65.3102 95.5748 66.8151 95.951 68.1175 96.7035C69.4198 97.427 70.4617 98.4399 71.2431 99.7423V96.0089H77.2774V117.237C77.2774 119.553 76.713 121.549 75.5843 123.228C74.4845 124.907 72.9362 126.195 70.9393 127.092C68.9713 128.018 66.6849 128.481 64.0802 128.481C61.6491 128.481 59.5509 128.076 57.7855 127.265C56.049 126.484 54.5296 125.37 53.2273 123.923L56.9607 120.146C57.8 121.101 58.8418 121.853 60.0863 122.403C61.3308 122.982 62.6621 123.271 64.0802 123.271C65.2089 123.271 66.2508 123.069 67.2058 122.664C68.1609 122.259 68.9134 121.607 69.4633 120.71C70.0421 119.813 70.3315 118.655 70.3315 117.237V115.023C69.6369 116.268 68.624 117.223 67.2927 117.888C65.9903 118.554 64.6011 118.887 63.1251 118.887ZM65.5128 113.374C66.0627 113.374 66.5691 113.301 67.0322 113.157C67.5242 112.983 67.9728 112.766 68.378 112.505C68.7831 112.216 69.1594 111.883 69.5067 111.507C69.854 111.102 70.1289 110.668 70.3315 110.205V105.429C70.0421 104.619 69.6224 103.924 69.0725 103.345C68.5227 102.738 67.9149 102.275 67.2493 101.956C66.5836 101.638 65.889 101.479 65.1655 101.479C64.442 101.479 63.7618 101.638 63.1251 101.956C62.4884 102.275 61.9385 102.738 61.4755 103.345C61.0414 103.924 60.6941 104.575 60.4336 105.299C60.2021 106.023 60.0863 106.775 60.0863 107.556C60.0863 108.396 60.2165 109.163 60.477 109.857C60.7664 110.552 61.1571 111.174 61.6491 111.724C62.1411 112.245 62.72 112.65 63.3856 112.939C64.0513 113.229 64.7603 113.374 65.5128 113.374ZM80.6048 111.984C80.6048 110.479 81.0245 109.163 81.8638 108.034C82.7031 106.905 83.8607 106.023 85.3367 105.386C86.8127 104.72 88.5058 104.387 90.4159 104.387C91.342 104.387 92.2536 104.474 93.1508 104.648C94.048 104.793 94.8294 105.01 95.4951 105.299V104.301C95.4951 103.056 95.1188 102.101 94.3664 101.435C93.6139 100.77 92.4707 100.437 90.9368 100.437C89.6634 100.437 88.4624 100.654 87.3336 101.088C86.2339 101.522 85.0618 102.144 83.8173 102.955L81.7335 98.5268C83.2385 97.5428 84.8013 96.8048 86.422 96.3128C88.0716 95.8208 89.8081 95.5748 91.6314 95.5748C95.0465 95.5748 97.6946 96.3996 99.5758 98.0492C101.486 99.6699 102.441 102.029 102.441 105.125V111.073C102.441 111.767 102.542 112.259 102.745 112.549C102.976 112.809 103.367 112.968 103.917 113.026V118.8C103.338 118.916 102.788 119.003 102.267 119.061C101.775 119.118 101.341 119.147 100.965 119.147C99.6626 119.147 98.6641 118.887 97.9695 118.366C97.3039 117.845 96.8842 117.136 96.7106 116.239L96.5804 115.24C95.5674 116.543 94.3519 117.541 92.9338 118.236C91.5446 118.901 90.0831 119.234 88.5492 119.234C87.0442 119.234 85.684 118.916 84.4685 118.279C83.2819 117.642 82.3413 116.774 81.6467 115.674C80.9521 114.575 80.6048 113.345 80.6048 111.984ZM94.4098 112.853C94.7281 112.592 94.9886 112.303 95.1912 111.984C95.3938 111.666 95.4951 111.362 95.4951 111.073V109.032C94.9162 108.801 94.2651 108.627 93.5415 108.511C92.8469 108.367 92.1958 108.294 91.588 108.294C90.3146 108.294 89.2582 108.584 88.4189 109.163C87.5796 109.713 87.16 110.451 87.16 111.377C87.16 111.898 87.3047 112.375 87.5941 112.809C87.8835 113.243 88.2742 113.591 88.7662 113.851C89.2872 114.112 89.8949 114.242 90.5895 114.242C91.2841 114.242 91.9787 114.112 92.6733 113.851C93.3679 113.591 93.9467 113.258 94.4098 112.853ZM107.387 87.1095H114.333V110.682C114.333 111.637 114.507 112.317 114.854 112.722C115.201 113.128 115.693 113.33 116.33 113.33C116.764 113.33 117.198 113.272 117.632 113.157C118.095 113.012 118.501 112.853 118.848 112.679L119.76 117.888C118.891 118.294 117.893 118.612 116.764 118.843C115.635 119.075 114.579 119.191 113.595 119.191C111.627 119.191 110.093 118.67 108.993 117.628C107.923 116.557 107.387 115.052 107.387 113.113V87.1095Z" fill="#161616"/>
<path d="M132.537 91.894C132.537 94.5618 133.598 97.1203 135.485 99.0067C137.372 100.893 139.932 101.953 142.601 101.953C145.27 101.953 147.83 100.893 149.717 99.0067C151.604 97.1203 152.665 94.5618 152.665 91.894L152.665 41.1764" stroke="#D9A14A" stroke-width="8.68235" stroke-linecap="round" stroke-linejoin="round"/>
<circle cx="141.812" cy="64.3294" r="10.1294" stroke="#C5374F" stroke-width="8.68235"/>
<path d="M127.73 14.6352C120.907 20.8351 116.641 29.3543 115.765 38.5294H189.565C188.688 29.3543 184.422 20.8351 177.599 14.6352C170.776 8.43534 161.886 5 152.665 5C143.444 5 134.553 8.43534 127.73 14.6352Z" stroke="#8CA13A" stroke-width="8.68235" stroke-linecap="round" stroke-linejoin="round"/>
</svg>
