<svg width="18" height="17" viewBox="0 0 18 17" fill="none" xmlns="http://www.w3.org/2000/svg">
<g clip-path="url(#clip0_3632_10076)">
<path d="M13.7455 8.09998H4.13769C3.37965 8.09998 2.76514 8.75091 2.76514 9.55389V14.6426C2.76514 15.4456 3.37965 16.0965 4.13769 16.0965H13.7455C14.5036 16.0965 15.1181 15.4456 15.1181 14.6426V9.55389C15.1181 8.75091 14.5036 8.09998 13.7455 8.09998Z" stroke="#666360" stroke-width="1.5" stroke-linecap="round" stroke-linejoin="round"/>
<path d="M5.41211 8.10034V5.25713C5.41211 4.31455 5.78396 3.41058 6.44585 2.74407C7.10774 2.07756 8.00546 1.70313 8.94152 1.70312C9.87758 1.70312 10.7753 2.07756 11.4372 2.74407C12.0991 3.41058 12.4709 4.31455 12.4709 5.25713V8.10034" stroke="#666360" stroke-width="1.5" stroke-linecap="round" stroke-linejoin="round"/>
</g>
<defs>
<clipPath id="clip0_3632_10076">
<rect width="17.6471" height="15.993" fill="white" transform="translate(0.118164 0.903076)"/>
</clipPath>
</defs>
</svg>
